<svg xmlns="http://www.w3.org/2000/svg" viewBox="0 0 1024 1024" width="64" height="64">
  <rect width="1024" height="1024" rx="180" fill="#161c17"></rect>
  <svg x="150" y="150" width="724" height="724" viewBox="0 0 96 96" fill="none">
  <defs>
    <linearGradient id="fg" x1="20" y1="24" x2="76" y2="36" gradientUnits="userSpaceOnUse"><stop stop-color="#b79bf3"></stop><stop offset="1" stop-color="#5cc08a"></stop></linearGradient>
    <clipPath id="fc"><path d="M21 29H75V49a5.4 6 0 0 1 -10.8 0a5.4 6 0 0 1 -10.8 0a5.4 6 0 0 1 -10.8 0a5.4 6 0 0 1 -10.8 0a5.4 6 0 0 1 -10.8 0Z"></path></clipPath>
  </defs>
  <path d="M40 60H57L40 73H57" stroke="#7fcb9e" stroke-width="5.2" stroke-linecap="round" stroke-linejoin="round"></path>
  <g clip-path="url(#fc)">
    <rect x="19" y="27" width="58" height="30" fill="url(#fg)"></rect>
    <rect x="31.8" y="27" width="10.8" height="30" fill="#161c17" fill-opacity=".17"></rect>
    <rect x="53.4" y="27" width="10.8" height="30" fill="#161c17" fill-opacity=".17"></rect>
  </g>
  <rect x="19" y="23" width="58" height="7.5" rx="3.75" fill="url(#fg)"></rect></svg>
</svg>