<svg xmlns="http://www.w3.org/2000/svg" viewBox="0 0 1024 1024" width="1024" height="1024">
  <defs><linearGradient id="bg" x1="120" y1="80" x2="940" y2="980" gradientUnits="userSpaceOnUse"><stop stop-color="#a98bf0"></stop><stop offset="1" stop-color="#7fcb9e"></stop></linearGradient></defs>
  <rect width="1024" height="1024" fill="url(#bg)"></rect>
  <svg x="252" y="252" width="520" height="520" viewBox="0 0 96 96" fill="none">
  <defs><clipPath id="kc"><path d="M21 29H75V49a5.4 6 0 0 1 -10.8 0a5.4 6 0 0 1 -10.8 0a5.4 6 0 0 1 -10.8 0a5.4 6 0 0 1 -10.8 0a5.4 6 0 0 1 -10.8 0Z"></path></clipPath></defs>
  <path d="M40 60H57L40 73H57" stroke="#ffffff" stroke-width="5.2" stroke-linecap="round" stroke-linejoin="round"></path>
  <g clip-path="url(#kc)">
    <rect x="19" y="27" width="58" height="30" fill="#ffffff"></rect>
    <rect x="31.8" y="27" width="10.8" height="30" fill="#5a9e78" fill-opacity=".45"></rect>
    <rect x="53.4" y="27" width="10.8" height="30" fill="#5a9e78" fill-opacity=".45"></rect>
  </g>
  <rect x="19" y="23" width="58" height="7.5" rx="3.75" fill="#ffffff"></rect></svg>
</svg>