<svg xmlns="http://www.w3.org/2000/svg" viewBox="0 0 1024 1024" width="1024" height="1024">
  <rect width="1024" height="1024" rx="230" fill="#f4f1e8"></rect>
  <svg x="172" y="172" width="680" height="680" viewBox="0 0 96 96" fill="none">
    <defs>
      <linearGradient id="lg" x1="20" y1="24" x2="76" y2="36" gradientUnits="userSpaceOnUse"><stop stop-color="#8b6fe0"></stop><stop offset="1" stop-color="#4eb87f"></stop></linearGradient>
      <clipPath id="lc"><path d="M21 29H75V49a5.4 6 0 0 1 -10.8 0a5.4 6 0 0 1 -10.8 0a5.4 6 0 0 1 -10.8 0a5.4 6 0 0 1 -10.8 0a5.4 6 0 0 1 -10.8 0Z"></path></clipPath>
    </defs>
    <path d="M40 60H57L40 73H57" stroke="#2f9b66" stroke-width="5.2" stroke-linecap="round" stroke-linejoin="round"></path>
    <g clip-path="url(#lc)">
      <rect x="19" y="27" width="58" height="30" fill="url(#lg)"></rect>
      <rect x="31.8" y="27" width="10.8" height="30" fill="#f4f1e8" fill-opacity=".55"></rect>
      <rect x="53.4" y="27" width="10.8" height="30" fill="#f4f1e8" fill-opacity=".55"></rect>
    </g>
    <rect x="19" y="23" width="58" height="7.5" rx="3.75" fill="url(#lg)"></rect>
  </svg>
</svg>